<svg width="30" height="34" viewBox="0 0 30 34" fill="none" xmlns="http://www.w3.org/2000/svg">
<path d="M11.3373 18.4664C12.1595 18.4664 12.8261 17.7995 12.8261 16.9769C12.8261 16.1542 12.1595 15.4873 11.3373 15.4873C10.515 15.4873 9.84841 16.1542 9.84841 16.9769C9.84841 17.7995 10.515 18.4664 11.3373 18.4664Z" fill="#011627"/>
<path d="M19.8027 16.9769C19.8027 17.7995 19.1361 18.4664 18.3139 18.4664C17.4916 18.4664 16.825 17.7995 16.825 16.9769C16.825 16.1542 17.4916 15.4873 18.3139 15.4873C19.1361 15.4873 19.8027 16.1542 19.8027 16.9769Z" fill="#011627"/>
<path fill-rule="evenodd" clip-rule="evenodd" d="M10.3123 2.36819H11.1761V0.0262451H10.168C6.08363 0.0262451 3.20127 1.68713 3.20127 5.60472C3.20127 6.74872 3.37905 7.85389 3.56257 8.99474C3.57035 9.04309 3.57814 9.09151 3.58592 9.14C3.61882 9.34085 3.65003 9.54087 3.6804 9.74173C3.68175 9.74895 3.68287 9.75641 3.68399 9.76399C3.68498 9.77058 3.68597 9.77725 3.68715 9.78393C3.84067 10.7621 3.96973 11.7393 3.96973 12.7175C3.96973 12.7373 3.96952 12.7571 3.96931 12.777C3.9691 12.7968 3.96889 12.8166 3.96889 12.8365V12.8744C3.93262 14.321 3.36914 15.8688 0.0793457 15.8688V18.0411C3.48892 18.0411 3.96973 19.8716 3.96973 21.1915C3.96973 22.3038 3.79175 23.4153 3.60533 24.5259C3.60195 24.5449 3.59879 24.5641 3.59562 24.5833C3.59246 24.6025 3.5893 24.6217 3.58592 24.6407C3.41469 25.6686 3.24176 26.7312 3.20802 27.7667C3.2038 27.8891 3.20127 28.0106 3.20127 28.133C3.20127 32.2916 5.98668 33.8633 9.77446 33.9622H12.5742L12.5721 26.77H17.08V33.9586H19.8767C23.6069 33.8309 26.3369 32.2498 26.3369 28.1321C26.3369 26.9827 26.1454 25.7902 25.9531 24.6407C25.7599 23.4913 25.5685 22.3418 25.5685 21.1907C25.5685 19.8707 26.0484 18.0402 29.4605 18.0402V15.8679C26.0476 15.8688 25.5676 14.207 25.5676 12.7175C25.5676 12.6668 25.5676 12.6145 25.5685 12.5639V12.5637C25.5685 12.5511 25.5685 12.5377 25.5693 12.5259V12.5259L25.5694 12.5259C25.5854 11.5174 25.733 10.5089 25.8933 9.50035C25.8937 9.49808 25.8941 9.49578 25.8945 9.49345C25.8948 9.49128 25.8952 9.48909 25.8955 9.48688C25.8961 9.4834 25.8966 9.47988 25.8971 9.4763L25.8971 9.47627C25.8976 9.4731 25.8981 9.4699 25.8985 9.46665L25.8991 9.46315L25.8995 9.4603L25.9 9.45731L25.9 9.45728C25.9016 9.45024 25.9025 9.44355 25.9037 9.43653C25.9043 9.43263 25.905 9.42863 25.9059 9.42441C25.9202 9.32988 25.9362 9.23452 25.9523 9.14L25.9677 9.04461C26.1227 8.08653 26.2735 7.1539 26.32 6.20307C26.331 6.00475 26.3361 5.80557 26.3361 5.60472C26.3361 1.81372 23.6359 0.135958 19.7607 0.0304648C19.7292 0.0300522 19.6975 0.0295891 19.6658 0.0291249C19.5677 0.0276903 19.4689 0.0262451 19.3702 0.0262451H18.3613V2.36819H19.2259C22.061 2.36819 23.0218 3.73116 23.0218 6.03175C23.0218 6.25118 23.0142 6.47229 23.0007 6.69594C22.983 7.00735 22.951 7.32299 22.9113 7.63862C22.9113 7.63876 22.9113 7.63891 22.9112 7.63905L17.7294 4.48572L17.7295 4.48564L15.0243 2.8391H15.0243L12.3208 4.4848L12.3207 4.4848L6.66488 7.92688L6.66483 7.92641C6.57373 7.28501 6.51553 6.65036 6.51553 6.03175C6.51637 3.73116 7.47716 2.36819 10.3123 2.36819ZM22.4473 10.6317L15.0258 6.12634L7.12215 10.9242C7.12257 10.9299 7.12314 10.9352 7.12371 10.9406C7.12435 10.9465 7.12498 10.9524 7.1254 10.9587C7.16505 11.39 7.18867 11.8305 7.18867 12.2913C7.23675 15.0172 5.89131 16.3802 3.73017 16.8908V16.9769C5.89215 17.4453 7.23759 18.8926 7.18867 21.6177C7.18867 22.768 7.04358 23.8322 6.8521 24.8551C6.7011 25.6948 6.57795 26.483 6.53408 27.2814C6.52312 27.4932 6.51637 27.7059 6.51637 27.9203C6.51637 30.1632 7.49444 31.4642 9.84841 31.6112V23.8846H19.8027V31.6033C22.0764 31.4223 23.0227 30.1273 23.0227 27.9203C23.0227 26.8983 22.8776 25.9176 22.6861 24.8542C22.4938 23.8314 22.3495 22.7672 22.3495 21.6169C22.3023 18.8926 23.6477 17.4444 25.8089 16.976V16.8899C23.6477 16.3793 22.3023 15.0164 22.3495 12.2904C22.3495 11.725 22.3841 11.1899 22.4432 10.6658L22.4433 10.6637C22.4441 10.6534 22.445 10.6418 22.4473 10.6317Z" fill="#011627"/>
</svg>
