<svg width="77" height="14" viewBox="0 0 77 14" fill="none" xmlns="http://www.w3.org/2000/svg">
<path d="M5.96642 10.5619C5.5395 10.7687 4.78924 10.8716 3.98003 10.8716C1.56671 10.8716 0.0510254 9.4555 0.0510254 7.1549C0.0510254 5.08977 1.4783 3.32086 4.30337 3.32086C4.81871 3.32086 5.45109 3.39429 5.96642 3.57151L5.59844 5.51849C5.34836 5.41553 4.99554 5.34127 4.45073 5.34127C3.46469 5.34127 2.75821 6.0198 2.77337 7.06713C2.77337 8.24697 3.58258 8.80735 4.52483 8.80735C4.98122 8.80735 5.3492 8.74827 5.6877 8.61577L5.96642 10.5619Z" fill="#011627"/>
<path d="M10.3367 10.886C8.17343 10.886 6.49607 9.51457 6.49607 7.1549C6.49607 4.83912 8.01176 3.30567 10.484 3.30567C12.75 3.30567 14.2513 4.83912 14.2513 7.0224C14.2513 9.66226 12.3677 10.886 10.3518 10.886H10.3367ZM10.4108 9.01327C11.1315 9.01327 11.5147 8.26132 11.5147 7.09583C11.5147 6.09322 11.1913 5.17838 10.4108 5.17838C9.52829 5.17838 9.23357 6.13711 9.23357 7.09583C9.23357 8.18705 9.58639 9.01327 10.3964 9.01327H10.4108Z" fill="#011627"/>
<path d="M22.9185 0.23877V8.43854C22.9185 9.33818 22.948 10.2378 22.9775 10.7248H20.6079L20.5052 9.75172H20.4757C20.005 10.5627 19.1217 10.8877 18.2982 10.8877C16.6208 10.8877 15.223 9.42764 15.223 7.15659C15.2079 4.7083 16.753 3.30735 18.4599 3.30735C19.2548 3.30735 19.9023 3.54366 20.2256 4.01542H20.2551V0.23877H22.9185ZM20.2551 6.60971C20.2551 6.50675 20.2551 6.3734 20.24 6.27044C20.1372 5.75395 19.7541 5.34126 19.195 5.34126C18.3125 5.34126 17.9151 6.13794 17.9151 7.08147C17.9151 8.20223 18.4599 8.7778 19.1807 8.7778C19.7255 8.7778 20.1221 8.39465 20.2105 7.9077C20.2543 7.76001 20.2543 7.59797 20.2543 7.42074V6.60971H20.2551Z" fill="#011627"/>
<path d="M26.7145 8.02501C26.8029 8.60058 27.6416 8.92465 28.583 8.92465C29.26 8.92465 29.9075 8.85123 30.5551 8.64446L30.8936 10.4142C30.0254 10.7535 29.084 10.8716 28.1864 10.8716C25.6409 10.8716 24.1984 9.47069 24.1984 7.17009C24.1984 5.48895 25.2872 3.30651 27.9506 3.30651C30.2907 3.30651 31.291 5.03238 31.291 7.02325C31.291 7.45113 31.2321 7.84947 31.1883 8.02585H26.7145V8.02501ZM28.8482 6.22572C28.8482 5.81303 28.6571 5.04588 27.8184 5.04588C27.0387 5.04588 26.7296 5.7683 26.685 6.22572H28.8482Z" fill="#011627"/>
<path d="M34.5573 3.46855L35.3371 6.55064C35.4844 7.12621 35.5872 7.68659 35.6756 8.26131H35.7194C35.8078 7.6714 35.8962 7.1549 36.0427 6.55064L36.7635 3.46855H39.5448L36.9109 10.7248H34.2475L31.6725 3.46855H34.5573Z" fill="#011627"/>
<path d="M44.7697 0.23877H47.4331V10.7248H44.7697V0.23877Z" fill="#011627"/>
<path d="M49.0667 0.23877H51.7301V10.7248H49.0667V0.23877Z" fill="#011627"/>
<path d="M59.8087 8.95419C59.8087 9.67661 59.8525 10.3551 59.9266 10.7239H57.5284L57.3962 10.0901H57.3373C56.8371 10.6657 56.1163 10.8868 55.3357 10.8868C53.8495 10.8868 52.9376 9.80995 52.9376 8.60058C52.9376 6.6536 54.689 5.78349 57.1461 5.78349V5.72442C57.1461 5.42988 56.9255 5.10496 55.9546 5.10496C55.1892 5.10496 54.3952 5.3708 53.9093 5.6358L53.4529 3.96901C53.9093 3.71836 54.9534 3.30567 56.4548 3.30567C58.9414 3.30567 59.8095 4.69227 59.8095 6.50591V8.95419H59.8087ZM57.2329 7.40555C56.1441 7.40555 55.5403 7.70009 55.5403 8.34908C55.5403 8.8065 55.8351 9.04196 56.2906 9.04196C56.6729 9.04196 57.0703 8.77612 57.2025 8.37862C57.232 8.26047 57.232 8.12797 57.232 7.99547V7.40555H57.2329Z" fill="#011627"/>
<path d="M68.5635 9.66226C68.5635 10.9307 68.3134 12.1401 67.4301 12.9064C66.6057 13.6145 65.5026 13.806 64.3844 13.806C63.384 13.806 62.3685 13.6145 61.6915 13.26L62.1917 11.2539C62.6329 11.5046 63.4573 11.7848 64.2808 11.7848C65.2222 11.7848 65.9582 11.2683 65.9582 10.1475V9.82346H65.9287C65.4875 10.3695 64.8399 10.6345 64.1191 10.6345C62.3534 10.6345 61.0734 9.21835 61.0734 7.10933C61.0734 4.82308 62.5445 3.30398 64.3549 3.30398C65.2374 3.30398 65.8411 3.64325 66.2234 4.24751H66.2529L66.3413 3.46602H68.6224C68.5929 3.92344 68.5635 4.54289 68.5635 5.69319V9.66226ZM65.9152 6.46203C65.9152 6.34387 65.9001 6.22572 65.8858 6.12276C65.7679 5.59192 65.4294 5.29654 64.9443 5.29654C64.312 5.29654 63.7672 5.91599 63.7672 7.06629C63.7672 8.00982 64.2084 8.70354 64.9443 8.70354C65.4302 8.70354 65.783 8.37947 65.8714 7.98113C65.9152 7.83344 65.9152 7.59797 65.9152 7.43509V6.46203Z" fill="#011627"/>
<path d="M72.3603 8.02501C72.4487 8.60058 73.2874 8.92465 74.2288 8.92465C74.9058 8.92465 75.5533 8.85123 76.2009 8.64446L76.5394 10.4142C75.6712 10.7535 74.7298 10.8716 73.8322 10.8716C71.2867 10.8716 69.8442 9.47069 69.8442 7.17009C69.8442 5.48895 70.933 3.30651 73.5964 3.30651C75.9364 3.30651 76.9368 5.03238 76.9368 7.02325C76.9368 7.45113 76.8779 7.84947 76.8341 8.02585H72.3603V8.02501ZM74.494 6.22572C74.494 5.81303 74.3029 5.04588 73.4642 5.04588C72.6845 5.04588 72.3754 5.7683 72.3308 6.22572H74.494Z" fill="#011627"/>
<path d="M43.137 3.46855H40.4736V10.7248H43.137V3.46855Z" fill="#011627"/>
</svg>
